<svg width="132" height="98" viewBox="0 0 132 98" fill="none" xmlns="http://www.w3.org/2000/svg">
<circle opacity="0.2" cx="65.6413" cy="53.9308" r="39.1384" fill="#35B932"/>
<path d="M79.7153 52.2995V53.6226C79.7135 56.7239 78.7093 59.7415 76.8524 62.2254C74.9955 64.7093 72.3854 66.5265 69.4114 67.4058C66.4374 68.2851 63.2588 68.1795 60.3497 67.1047C57.4406 66.03 54.9569 64.0437 53.269 61.442C51.581 58.8403 50.7793 55.7627 50.9833 52.6682C51.1874 49.5736 52.3863 46.6279 54.4012 44.2704C56.4162 41.9129 59.1393 40.2699 62.1643 39.5865C65.1893 38.903 68.3542 39.2157 71.187 40.4779" stroke="#35B932" stroke-width="2" stroke-linecap="round" stroke-linejoin="round"/>
<path d="M79.7151 42.1174L65.3335 56.5133L61.019 52.1989" stroke="#35B932" stroke-width="2" stroke-linecap="round" stroke-linejoin="round"/>
<path d="M129.639 60.1971H126.763V63.0734H125.941V60.1971H123.065V59.3753H125.941V56.499H126.763V59.3753H129.639V60.1971Z" fill="#9E9E9E"/>
<path d="M93.8908 5.34172H91.0145V8.21803H90.1927V5.34172H87.3164V4.51991H90.1927V1.6436H91.0145V4.51991H93.8908V5.34172Z" fill="#9E9E9E"/>
<path d="M8.21798 39.2411H5.34167V42.1174H4.51986V39.2411H1.64355V38.4193H4.51986V35.543H5.34167V38.4193H8.21798V39.2411Z" fill="#9E9E9E"/>
<circle cx="36.9811" cy="9.86163" r="3.43082" stroke="#35B932" stroke-width="3"/>
<circle cx="116.49" cy="21.5723" r="3.43082" stroke="#35B932" stroke-width="3"/>
<circle cx="106.629" cy="93.0692" r="3.43082" stroke="#35B932" stroke-width="3"/>
<circle cx="17.8742" cy="78.2767" r="3.43082" stroke="#35B932" stroke-width="3"/>
</svg>
